# xmcd
#
# Track frame offsets:
#  150
#  17028
#  33457
#  48507
#  66911
#  80704
#  96666
#  113388
#  133300
#  148144
#  163522
#  175444
#  189246
#  212423
#  223220
#  242051
#  259606
#  275656
#
# Disc length: 3875 seconds
#
# Revision: 0
# Processed by: cddbd v1.5.2PL0 Copyright (c) Steve Scherf et al.
# Submitted via: AltoMP3_Maker 3.0
#
DISCID=140f2112
DTITLE=Maxwell Mendis - Mama Bhoma baya Una
DYEAR=1900
DGENRE=
TTITLE0=Mama Bhoma Baya Una
TTITLE1=Hora Boru Mage Ne
TTITLE2=Stationa Master
TTITLE3=Mera nam Raju
TTITLE4=Ruwa Athi Aya
TTITLE5=Dry Rop Rikin
TTITLE6=Ambare Siriyawathi
TTITLE7=Ratak Watinawa
TTITLE8=Badu Wikunanawa Mariya Kade
TTITLE9=Maha Dena Muththa
TTITLE10=Mage Surathal Duwa
TTITLE11=Kussi Amma
TTITLE12=Mala Holman
TTITLE13=Man bandinne Na
TTITLE14=Hay Hooi babi Achchi
TTITLE15=Gee Kiyamin 
TTITLE16=Kala Bala Salli Denna
TTITLE17=Mage Adara Kettu Misi
EXTD=
EXTT0=
EXTT1=
EXTT2=
EXTT3=
EXTT4=
EXTT5=
EXTT6=
EXTT7=
EXTT8=
EXTT9=
EXTT10=
EXTT11=
EXTT12=
EXTT13=
EXTT14=
EXTT15=
EXTT16=
EXTT17=
PLAYORDER=
